<?xml version="1.0" encoding="UTF-8" standalone="no"?>
<!DOCTYPE svg PUBLIC "-//W3C//DTD SVG 1.1//EN" "http://www.w3.org/Graphics/SVG/1.1/DTD/svg11.dtd">
<svg width="100%" height="100%" viewBox="0 0 3758 1731" version="1.1" xmlns="http://www.w3.org/2000/svg" xmlns:xlink="http://www.w3.org/1999/xlink" xml:space="preserve" xmlns:serif="http://www.serif.com/" style="fill-rule:evenodd;clip-rule:evenodd;stroke-linejoin:round;stroke-miterlimit:2;">
    <g transform="matrix(1,0,0,1,-41.1382,-214.01)">
        <g transform="matrix(0.983818,0,0,0.983818,328.43,-216.73)">
            <g transform="matrix(1,0,0,1,373.692,282.476)">
                <g transform="matrix(2435.93,0,0,2435.93,401.221,1914.95)">
                    <path d="M0.188,-0.112C0.17,-0.09 0.161,-0.067 0.161,-0.054C0.161,-0.018 0.193,-0 0.256,-0L0.422,-0C0.522,-0 0.619,-0.043 0.677,-0.112L1.096,-0.609C1.119,-0.636 1.13,-0.66 1.13,-0.677C1.13,-0.706 1.095,-0.721 1.026,-0.722L0.523,-0.722L0.59,-0.59L0.188,-0.112ZM0.447,-0.16L0.783,-0.561L0.837,-0.561L0.501,-0.16L0.447,-0.16Z" style="fill:rgb(34,194,252);fill-rule:nonzero;"/>
                </g>
            </g>
            <g transform="matrix(1,0,0,1,-951.446,281.463)">
                <g transform="matrix(2435.93,0,0,2435.93,401.221,1914.95)">
                    <path d="M0.106,-0L0.323,-0L0.605,-0.338L0.473,-0L0.679,-0L1.284,-0.722L1.067,-0.722L0.794,-0.397L0.915,-0.722L0.525,-0.722L0.595,-0.585L0.106,-0Z" style="fill:white;fill-rule:nonzero;"/>
                </g>
            </g>
        </g>
    </g>
</svg>
